<svg xmlns="http://www.w3.org/2000/svg" viewBox="0 0 200 200" width="200" height="200">
  <!-- Gradient definitions -->
  <defs>
    <linearGradient id="brainGradient" x1="0%" y1="0%" x2="100%" y2="100%">
      <stop offset="0%" style="stop-color:#8b5cf6;stop-opacity:1" />
      <stop offset="50%" style="stop-color:#6366f1;stop-opacity:1" />
      <stop offset="100%" style="stop-color:#3b82f6;stop-opacity:1" />
    </linearGradient>
    <linearGradient id="chartGradient" x1="0%" y1="0%" x2="100%" y2="0%">
      <stop offset="0%" style="stop-color:#10b981;stop-opacity:1" />
      <stop offset="100%" style="stop-color:#ef4444;stop-opacity:1" />
    </linearGradient>
    <radialGradient id="glowGradient" cx="50%" cy="50%" r="50%">
      <stop offset="60%" style="stop-color:#6366f1;stop-opacity:0" />
      <stop offset="100%" style="stop-color:#6366f1;stop-opacity:0.3" />
    </radialGradient>
  </defs>
  
  <!-- Glow effect background -->
  <circle cx="100" cy="100" r="90" fill="url(#glowGradient)"/>
  
  <!-- Outer ring with neural network theme -->
  <circle cx="100" cy="100" r="85" fill="none" stroke="url(#brainGradient)" stroke-width="3" opacity="0.4"/>
  
  <!-- Neural network connections -->
  <g opacity="0.3" stroke="url(#brainGradient)" stroke-width="2" fill="none">
    <line x1="50" y1="50" x2="100" y2="100"/>
    <line x1="150" y1="50" x2="100" y2="100"/>
    <line x1="50" y1="150" x2="100" y2="100"/>
    <line x1="150" y1="150" x2="100" y2="100"/>
    <line x1="100" y1="30" x2="100" y2="100"/>
  </g>
  
  <!-- Neural nodes -->
  <g fill="url(#brainGradient)">
    <circle cx="50" cy="50" r="6"/>
    <circle cx="150" cy="50" r="6"/>
    <circle cx="50" cy="150" r="6"/>
    <circle cx="150" cy="150" r="6"/>
    <circle cx="100" cy="30" r="6"/>
  </g>
  
  <!-- Central brain icon -->
  <g transform="translate(100, 80)" fill="url(#brainGradient)">
    <!-- Simplified brain shape -->
    <path d="M-20,-15 Q-25,-20 -20,-25 Q-10,-30 0,-28 Q10,-30 20,-25 Q25,-20 20,-15 Q20,-5 15,5 Q10,15 0,15 Q-10,15 -15,5 Q-20,-5 -20,-15 Z" opacity="0.9"/>
    <!-- Brain details -->
    <path d="M-15,-15 Q-10,-10 -5,-15 M5,-15 Q10,-10 15,-15 M-10,-5 Q-5,0 0,-5 M0,-5 Q5,0 10,-5" 
          stroke="#ffffff" stroke-width="2" fill="none" opacity="0.6"/>
  </g>
  
  <!-- Chart/candlestick at bottom -->
  <g transform="translate(100, 140)">
    <!-- Candlestick bars -->
    <g stroke-width="3" fill="none">
      <!-- Green (up) candle -->
      <line x1="-30" y1="-10" x2="-30" y2="10" stroke="#10b981" stroke-width="8"/>
      <line x1="-30" y1="-15" x2="-30" y2="-10" stroke="#10b981" stroke-width="2"/>
      <line x1="-30" y1="10" x2="-30" y2="15" stroke="#10b981" stroke-width="2"/>
      
      <!-- Red (down) candle -->
      <line x1="-10" y1="-5" x2="-10" y2="15" stroke="#ef4444" stroke-width="8"/>
      <line x1="-10" y1="-15" x2="-10" y2="-5" stroke="#ef4444" stroke-width="2"/>
      <line x1="-10" y1="15" x2="-10" y2="18" stroke="#ef4444" stroke-width="2"/>
      
      <!-- Green (up) candle -->
      <line x1="10" y1="0" x2="10" y2="12" stroke="#10b981" stroke-width="8"/>
      <line x1="10" y1="-10" x2="10" y2="0" stroke="#10b981" stroke-width="2"/>
      <line x1="10" y1="12" x2="10" y2="20" stroke="#10b981" stroke-width="2"/>
      
      <!-- Green (up) candle -->
      <line x1="30" y1="-8" x2="30" y2="8" stroke="#10b981" stroke-width="8"/>
      <line x1="30" y1="-18" x2="30" y2="-8" stroke="#10b981" stroke-width="2"/>
      <line x1="30" y1="8" x2="30" y2="18" stroke="#10b981" stroke-width="2"/>
    </g>
  </g>
  
  <!-- Prediction arrow - up -->
  <g transform="translate(130, 100)">
    <path d="M0,10 L0,-10 M-8,-2 L0,-10 L8,-2" stroke="#10b981" stroke-width="4" fill="none" stroke-linecap="round" stroke-linejoin="round" opacity="0.8"/>
  </g>
  
  <!-- Prediction arrow - down -->
  <g transform="translate(70, 100)">
    <path d="M0,-10 L0,10 M-8,2 L0,10 L8,2" stroke="#ef4444" stroke-width="4" fill="none" stroke-linecap="round" stroke-linejoin="round" opacity="0.8"/>
  </g>
  
  <!-- Ethereum symbol hint (optional) -->
  <g transform="translate(100, 100)" opacity="0.15" fill="#ffffff">
    <path d="M0,-8 L-5,0 L0,3 L5,0 Z"/>
    <path d="M0,3 L-5,0 L0,8 L5,0 Z"/>
  </g>
</svg>

